<?xml version="1.0" standalone="no"?>
<!DOCTYPE svg PUBLIC "-//W3C//DTD SVG 20010904//EN"
 "http://www.w3.org/TR/2001/REC-SVG-20010904/DTD/svg10.dtd">
<svg version="1.0" xmlns="http://www.w3.org/2000/svg"
 width="300.000000pt" height="300.000000pt" viewBox="0 0 300.000000 300.000000"
 preserveAspectRatio="xMidYMid meet">
<metadata>
Created by potrace 1.11, written by Peter Selinger 2001-2013
</metadata>
<g transform="translate(0.000000,300.000000) scale(0.100000,-0.100000)"
fill="#000000" stroke="none">
<path d="M0 1500 l0 -1500 1500 0 1500 0 0 1500 0 1500 -1500 0 -1500 0 0
-1500z m1508 804 c27 -19 30 -74 5 -96 -11 -10 -49 -18 -102 -22 -342 -27
-797 -204 -978 -381 -35 -33 -63 -65 -63 -70 0 -6 70 -8 187 -4 104 4 319 7
479 8 l292 1 46 64 c105 142 325 277 616 377 203 70 431 119 557 119 44 0 55
-4 72 -26 26 -33 26 -45 1 -76 -17 -22 -29 -26 -110 -31 -283 -20 -705 -170
-905 -320 -50 -38 -105 -89 -105 -97 0 -4 125 -10 278 -13 325 -8 514 -21 707
-48 233 -33 332 -67 399 -135 56 -58 79 -117 80 -204 1 -66 -3 -84 -33 -144
-63 -128 -212 -253 -430 -362 -197 -97 -431 -171 -617 -194 -105 -13 -134 -1
-134 54 0 48 23 63 120 76 287 38 658 193 828 346 l44 39 -189 3 c-210 2 -408
16 -558 38 -93 13 -278 54 -317 69 -15 6 -18 1 -18 -29 0 -27 -6 -39 -25 -52
-22 -15 -48 -16 -213 -10 -483 17 -768 65 -968 161 -108 52 -183 117 -219 188
l-26 52 -81 0 c-77 0 -82 1 -102 28 -19 26 -19 30 -6 54 21 36 34 41 121 48
l76 6 17 39 c49 110 195 233 401 334 196 97 447 178 635 205 41 6 86 13 100
15 62 9 117 5 138 -10z m-290 -1266 c20 -20 13 -32 -7 -14 -27 24 -63 17 -79
-16 -24 -52 20 -104 68 -78 27 14 26 38 -2 43 -20 4 -19 4 5 6 22 1 27 -3 27
-24 0 -31 -31 -48 -71 -40 -76 17 -59 135 19 135 15 0 33 -5 40 -12z m64 -45
c3 -57 3 -58 33 -58 30 0 30 1 33 58 4 71 22 76 22 5 0 -58 -19 -88 -56 -88
-33 0 -54 36 -54 92 0 68 18 60 22 -9z m135 -50 c-2 -21 -4 -4 -4 37 0 41 2
58 4 38 2 -21 2 -55 0 -75z m113 98 c-23 -6 -25 -12 -26 -64 -2 -81 -14 -84
-14 -4 0 60 -2 66 -22 70 -13 2 2 4 32 5 38 0 47 -2 30 -7z m112 -58 c26 -64
32 -104 7 -49 -17 37 -65 37 -80 0 -5 -15 -12 -24 -15 -21 -5 5 28 106 42 129
11 17 20 5 46 -59z m146 34 c2 -17 -2 -29 -12 -33 -14 -5 -13 -9 4 -31 34 -43
22 -51 -13 -9 -39 46 -64 44 -70 -6 -2 -18 -5 0 -5 40 l-2 73 48 -3 c43 -3 47
-5 50 -31z m120 21 c7 -7 12 -16 12 -22 0 -5 -6 -2 -13 8 -16 22 -60 18 -65
-6 -2 -12 8 -20 37 -28 23 -6 41 -12 41 -15 0 -2 3 -10 6 -18 7 -19 -22 -47
-48 -47 -23 0 -58 26 -58 43 0 6 9 1 20 -11 22 -23 29 -26 54 -16 31 12 18 40
-24 53 -32 9 -40 17 -40 35 0 12 3 26 7 29 11 11 58 8 71 -5z"/>
<path d="M1255 2280 c-456 -82 -895 -306 -985 -505 -10 -22 -21 -48 -24 -57
-4 -14 -16 -18 -54 -18 -85 0 -142 -11 -142 -28 0 -12 15 -14 95 -10 l95 5 7
-26 c21 -88 95 -164 216 -221 199 -95 480 -142 924 -156 189 -6 213 -5 213 8
0 25 -22 28 -189 28 -454 0 -831 71 -1010 191 -62 42 -121 116 -121 154 0 21
5 22 123 29 67 3 308 9 535 13 l412 6 0 -43 c0 -167 221 -299 600 -359 164
-26 311 -39 554 -47 191 -7 198 -6 194 12 -3 18 -18 19 -238 26 -514 14 -843
87 -994 219 -55 48 -86 104 -86 154 l0 35 178 0 c315 0 713 -24 928 -56 281
-41 373 -99 382 -239 4 -52 0 -73 -22 -120 -85 -187 -458 -402 -847 -489 -64
-14 -134 -26 -155 -26 -45 0 -70 -13 -59 -30 9 -14 77 -8 210 21 134 28 295
84 434 150 292 139 459 298 477 455 12 99 -55 208 -153 249 -152 64 -491 102
-1025 113 -174 4 -320 11 -324 14 -11 12 34 74 97 132 189 175 600 336 970
379 125 14 134 33 16 31 -110 -2 -271 -36 -447 -94 -325 -106 -577 -262 -661
-407 l-23 -40 -119 -7 c-66 -3 -213 -6 -326 -7 -113 0 -300 -4 -416 -8 -116
-5 -212 -7 -213 -5 -2 1 2 20 8 41 18 55 155 186 260 247 232 136 580 248 843
271 55 5 77 11 77 21 0 19 -89 17 -215 -6z"/>
<path d="M607 1599 c-131 -4 -241 -10 -244 -13 -15 -15 69 -81 152 -121 145
-70 352 -113 645 -135 164 -11 390 -18 390 -10 0 3 -21 16 -46 30 -99 52 -194
168 -194 237 l0 23 -232 -2 c-128 0 -340 -5 -471 -9z"/>
<path d="M1460 1570 c53 -104 269 -193 565 -234 190 -26 224 -28 468 -35 238
-6 239 -6 259 -31 11 -14 18 -34 15 -47 -7 -38 8 -26 38 29 52 95 29 192 -56
235 -115 58 -368 93 -829 113 -124 5 -282 10 -353 10 l-127 0 20 -40z"/>
<path d="M1596 1004 c-10 -26 -7 -34 13 -34 14 0 18 5 14 20 -7 27 -20 34 -27
14z"/>
<path d="M1710 1015 c0 -21 5 -25 29 -25 17 0 33 5 36 10 10 16 -15 40 -41 40
-19 0 -24 -5 -24 -25z"/>
</g>
</svg>
